<?xml version="1.0" encoding="UTF-8"?>
<svg version="1.1" xmlns="http://www.w3.org/2000/svg" width="146" height="138">
<path d="M0 0 C48.18 0 96.36 0 146 0 C146 45.54 146 91.08 146 138 C97.82 138 49.64 138 0 138 C0 92.46 0 46.92 0 0 Z " fill="#FEFDFD" transform="translate(0,0)"/>
<path d="M0 0 C6.44484555 9.66726833 4.40525059 26.27924056 4.42553711 37.48974609 C4.43761092 40.65406882 4.48710133 43.8165453 4.53710938 46.98046875 C4.54655686 48.9999906 4.55379987 51.01952424 4.55859375 53.0390625 C4.57812607 53.98069244 4.59765839 54.92232239 4.61778259 55.89248657 C4.57284728 62.36518133 4.57284728 62.36518133 1.6574707 65.59594727 C-1.54783226 67.28944266 -3.64305571 67.44131944 -7.25 67.3125 C-8.30703125 67.28800781 -9.3640625 67.26351562 -10.453125 67.23828125 C-13 67 -13 67 -14 66 C-14.08748207 64.07332493 -14.10697334 62.14348139 -14.09765625 60.21484375 C-14.09443359 59.04501953 -14.09121094 57.87519531 -14.08789062 56.66992188 C-14.07532227 54.82237305 -14.07532227 54.82237305 -14.0625 52.9375 C-14.05798828 51.70193359 -14.05347656 50.46636719 -14.04882812 49.19335938 C-14.03699618 46.12888587 -14.01906008 43.06443707 -14 40 C-18.62 40 -23.24 40 -28 40 C-27.94779297 42.18689453 -27.94779297 42.18689453 -27.89453125 44.41796875 C-27.86638736 46.34113429 -27.83908785 48.26431232 -27.8125 50.1875 C-27.78736328 51.14720703 -27.76222656 52.10691406 -27.73632812 53.09570312 C-27.64334685 62.05289943 -27.64334685 62.05289943 -31 66 C-35.06304517 68.5095279 -40.33838535 68.8517292 -45 68 C-47.05635751 64.91546374 -47.27145801 64.08641159 -47.41064453 60.56713867 C-47.47048019 59.22379707 -47.47048019 59.22379707 -47.53152466 57.85331726 C-47.56494965 56.88465225 -47.59837463 55.91598724 -47.6328125 54.91796875 C-47.67437469 53.91220291 -47.71593689 52.90643707 -47.75875854 51.87019348 C-47.84532055 49.73435388 -47.92740047 47.59832869 -48.00537109 45.4621582 C-48.12315507 42.23800215 -48.25361006 39.01457159 -48.38671875 35.79101562 C-48.5909441 30.74678653 -48.75938403 25.70227161 -48.91027832 20.65618896 C-48.99124853 18.25908507 -49.10469832 15.86632576 -49.22949219 13.47119141 C-49.27493164 12.21870605 -49.32037109 10.9662207 -49.3671875 9.67578125 C-49.4172998 8.62946533 -49.46741211 7.58314941 -49.51904297 6.50512695 C-49 4 -49 4 -46.65136719 2.17456055 C-42.1564337 0.18329674 -37.8106354 0.22359998 -33 1 C-29.5400487 4.05289821 -29.45344959 8.33542235 -29.1171875 12.75390625 C-28.8615965 19.83377696 -28.93055908 26.91702567 -29 34 C-24.38 34 -19.76 34 -15 34 C-15.10828125 32.52853516 -15.10828125 32.52853516 -15.21875 31.02734375 C-15.87404369 21.66400293 -16.12137789 12.38655698 -16 3 C-10.81797506 0.3538596 -5.86187207 -1.21774125 0 0 Z " fill="#EA202D" transform="translate(118,38)"/>
<path d="M0 0 C1.61358398 -0.01836914 1.61358398 -0.01836914 3.25976562 -0.03710938 C4.28650391 -0.03904297 5.31324219 -0.04097656 6.37109375 -0.04296875 C7.79119751 -0.04913208 7.79119751 -0.04913208 9.23999023 -0.05541992 C11.5625 0.1875 11.5625 0.1875 13.5625 2.1875 C13.82992554 4.1829834 13.82992554 4.1829834 13.85302734 6.66210938 C13.86578705 7.59067749 13.87854675 8.51924561 13.89169312 9.47595215 C13.89391876 10.48420044 13.89614441 11.49244873 13.8984375 12.53125 C13.9050943 13.57011353 13.9117511 14.60897705 13.91860962 15.67932129 C13.92875409 17.88515449 13.93342609 20.09101849 13.93310547 22.296875 C13.93744668 25.64636268 13.97365907 28.99449848 14.01171875 32.34375 C14.01759317 34.48957885 14.02155838 36.63541393 14.0234375 38.78125 C14.03780853 39.77330444 14.05217957 40.76535889 14.06698608 41.78747559 C14.01489997 49.86107846 12.33200789 56.76205603 7.1875 63.125 C1.90587105 67.27485132 -2.63839379 68.72370602 -9.3125 68.625 C-10.01922852 68.61815186 -10.72595703 68.61130371 -11.45410156 68.60424805 C-17.23678423 68.42612434 -20.75081913 67.5222537 -25.4375 64.1875 C-29.63445981 59.66769713 -30.56478992 57.1527521 -30.5 51.0625 C-30.49097656 49.96679688 -30.48195313 48.87109375 -30.47265625 47.7421875 C-30.46105469 46.89914063 -30.44945313 46.05609375 -30.4375 45.1875 C-28.78135343 44.80531233 -27.11292976 44.47354898 -25.4375 44.1875 C-23.89318254 45.73181746 -24.20968719 47.35877686 -24.0625 49.5 C-23.76335972 52.22261008 -23.43057605 54.20419894 -22.375 56.75 C-19.81459574 58.64965477 -17.5689464 58.74290072 -14.43359375 58.5703125 C-11.21180874 57.95243592 -9.63364858 56.57188989 -7.4375 54.1875 C-4.16144877 48.97911184 -3.96979154 44.59636306 -3.92578125 38.6328125 C-3.90783005 37.73126434 -3.88987885 36.82971619 -3.87138367 35.90084839 C-3.8174585 33.03811232 -3.78344225 30.17554129 -3.75 27.3125 C-3.7168112 25.36456046 -3.6823201 23.41664264 -3.64648438 21.46875 C-3.56174228 16.70845274 -3.49484641 11.94820292 -3.4375 7.1875 C-4.736875 7.208125 -6.03625 7.22875 -7.375 7.25 C-8.72915633 7.27149454 -10.08506083 7.25898199 -11.4375 7.1875 C-12.4375 6.1875 -12.4375 6.1875 -12.5625 3.6875 C-12.26779378 -2.20662445 -4.55793226 0.00272115 0 0 Z " fill="#070707" transform="translate(49.4375,37.8125)"/>
<path d="M0 0 C6.44484555 9.66726833 4.40525059 26.27924056 4.42553711 37.48974609 C4.43761092 40.65406882 4.48710133 43.8165453 4.53710938 46.98046875 C4.54655686 48.9999906 4.55379987 51.01952424 4.55859375 53.0390625 C4.57812607 53.98069244 4.59765839 54.92232239 4.61778259 55.89248657 C4.57284728 62.36518133 4.57284728 62.36518133 1.6574707 65.59594727 C-1.54783226 67.28944266 -3.64305571 67.44131944 -7.25 67.3125 C-8.30703125 67.28800781 -9.3640625 67.26351562 -10.453125 67.23828125 C-13 67 -13 67 -14 66 C-14.08748207 64.07332493 -14.10697334 62.14348139 -14.09765625 60.21484375 C-14.09443359 59.04501953 -14.09121094 57.87519531 -14.08789062 56.66992188 C-14.07951172 55.43822266 -14.07113281 54.20652344 -14.0625 52.9375 C-14.05798828 51.70193359 -14.05347656 50.46636719 -14.04882812 49.19335938 C-14.03699608 46.12885883 -14.02051173 43.06445279 -14 40 C-13.67 40 -13.34 40 -13 40 C-13 48.25 -13 56.5 -13 65 C-8.71 65 -4.42 65 0 65 C0.33 64.01 0.66 63.02 1 62 C1.66 62 2.32 62 3 62 C2.61913147 37.65860752 2.61913147 37.65860752 1.0625 13.375 C0.98789551 12.53106689 0.91329102 11.68713379 0.83642578 10.81762695 C0.49063966 6.44859336 0.49063966 6.44859336 -2 3 C-5.13545766 2.97864622 -5.13545766 2.97864622 -8.625 3.375 C-10.72875 3.58125 -12.8325 3.7875 -15 4 C-15 8.62 -15 13.24 -15 18 C-15.33 18 -15.66 18 -16 18 C-16 13.05 -16 8.1 -16 3 C-10.81797506 0.3538596 -5.86187207 -1.21774125 0 0 Z " fill="#C83F4D" transform="translate(118,38)"/>
<path d="M0 0 C0.33 0 0.66 0 1 0 C2.20514375 9.33986409 2.09213655 18.60207216 2 28 C6.62 28 11.24 28 16 28 C16 25.69 16 23.38 16 21 C16.33 21 16.66 21 17 21 C17 23.64 17 26.28 17 29 C15.35 29.33 13.7 29.66 12 30 C12 30.66 12 31.32 12 32 C13.65 32.33 15.3 32.66 17 33 C17 33.33 17 33.66 17 34 C12.38 34 7.76 34 3 34 C3 40.93 3 47.86 3 55 C2.67 55 2.34 55 2 55 C1.97494385 54.25314941 1.9498877 53.50629883 1.92407227 52.73681641 C1.80831787 49.36602733 1.68549872 45.99553217 1.5625 42.625 C1.52318359 41.449375 1.48386719 40.27375 1.44335938 39.0625 C1.40146484 37.94101563 1.35957031 36.81953125 1.31640625 35.6640625 C1.27974854 34.62717285 1.24309082 33.5902832 1.20532227 32.52197266 C1.15835777 30.00574834 1.15835777 30.00574834 0 28 C-0.08543895 25.89471067 -0.10714725 23.78668843 -0.09765625 21.6796875 C-0.09443359 20.42285156 -0.09121094 19.16601562 -0.08789062 17.87109375 C-0.07951172 16.55238281 -0.07113281 15.23367187 -0.0625 13.875 C-0.05748489 12.53515789 -0.05292201 11.195314 -0.04882812 9.85546875 C-0.03701086 6.57026794 -0.02053617 3.28515603 0 0 Z " fill="#D4444E" transform="translate(87,44)"/>
<path d="M0 0 C0.556875 0.226875 1.11375 0.45375 1.6875 0.6875 C-0.95988916 2.1481285 -2.20698334 2.6875 -5.3125 2.6875 C-5.28220703 3.28248291 -5.25191406 3.87746582 -5.22070312 4.49047852 C-4.32968975 22.56948249 -4.19524716 40.59268088 -4.3125 58.6875 C-3.6525 58.6875 -2.9925 58.6875 -2.3125 58.6875 C-2.3125 60.3375 -2.3125 61.9875 -2.3125 63.6875 C1.3175 63.6875 4.9475 63.6875 8.6875 63.6875 C8.6875 63.0275 8.6875 62.3675 8.6875 61.6875 C10.1725 61.1925 10.1725 61.1925 11.6875 60.6875 C11.6875 61.6775 11.6875 62.6675 11.6875 63.6875 C6.90232214 66.63222483 2.23832391 67.81986808 -3.3125 66.6875 C-5.36885751 63.60296374 -5.58395801 62.77391159 -5.72314453 59.25463867 C-5.78298019 57.91129707 -5.78298019 57.91129707 -5.84402466 56.54081726 C-5.87744965 55.57215225 -5.91087463 54.60348724 -5.9453125 53.60546875 C-5.98687469 52.59970291 -6.02843689 51.59393707 -6.07125854 50.55769348 C-6.15782055 48.42185388 -6.23990047 46.28582869 -6.31787109 44.1496582 C-6.43565507 40.92550215 -6.56611006 37.70207159 -6.69921875 34.47851562 C-6.9034441 29.43428653 -7.07188403 24.38977161 -7.22277832 19.34368896 C-7.30374853 16.94658507 -7.41719832 14.55382576 -7.54199219 12.15869141 C-7.58743164 10.90620605 -7.63287109 9.6537207 -7.6796875 8.36328125 C-7.7297998 7.31696533 -7.77991211 6.27064941 -7.83154297 5.19262695 C-7.3125 2.6875 -7.3125 2.6875 -4.93408203 0.81323242 C-2.3125 -0.3125 -2.3125 -0.3125 0 0 Z " fill="#C63A46" transform="translate(76.3125,39.3125)"/>
<path d="M0 0 C0.598125 0.20625 1.19625 0.4125 1.8125 0.625 C-0.1675 1.615 -0.1675 1.615 -2.1875 2.625 C-2.40037111 15.76683467 -1.75194109 28.87390362 -1.1875 42 C-1.09087868 44.29686378 -0.99452238 46.59373872 -0.8984375 48.890625 C-0.6645134 54.46888239 -0.42731892 60.04699309 -0.1875 65.625 C-1.1775 65.295 -2.1675 64.965 -3.1875 64.625 C-3.21255615 63.64031738 -3.2376123 62.65563477 -3.26342773 61.64111328 C-3.36012892 57.85824068 -3.45920138 54.07543259 -3.55871582 50.29263306 C-3.60279236 48.60187563 -3.64617162 46.91109988 -3.68884277 45.2203064 C-3.9058866 36.62506082 -4.14059723 28.03623825 -4.58203125 19.44921875 C-4.67109741 17.65363525 -4.67109741 17.65363525 -4.76196289 15.82177734 C-4.87699865 13.60393917 -5.00463682 11.38671065 -5.14624023 9.17041016 C-5.19594971 8.19249512 -5.24565918 7.21458008 -5.296875 6.20703125 C-5.34811523 5.36374268 -5.39935547 4.5204541 -5.45214844 3.65161133 C-5.36481445 2.98282959 -5.27748047 2.31404785 -5.1875 1.625 C-2.1875 -0.375 -2.1875 -0.375 0 0 Z " fill="#FDD6D9" transform="translate(72.1875,39.375)"/>
<path d="M0 0 C0.33 0 0.66 0 1 0 C1.12383963 4.19911597 1.21444607 8.39725816 1.2746582 12.59765625 C1.29976347 14.02557901 1.33385587 15.45337375 1.37719727 16.88085938 C1.43803678 18.93651918 1.46624551 20.99047753 1.48828125 23.046875 C1.51446533 24.28276367 1.54064941 25.51865234 1.56762695 26.79199219 C1 30 1 30 -1.33813477 32.40795898 C-4.56339743 34.33696365 -6.52033688 34.44570225 -10.25 34.3125 C-11.30703125 34.28800781 -12.3640625 34.26351562 -13.453125 34.23828125 C-16 34 -16 34 -17 33 C-17.08748207 31.07332493 -17.10697334 29.14348139 -17.09765625 27.21484375 C-17.09443359 26.04501953 -17.09121094 24.87519531 -17.08789062 23.66992188 C-17.07951172 22.43822266 -17.07113281 21.20652344 -17.0625 19.9375 C-17.05798828 18.70193359 -17.05347656 17.46636719 -17.04882812 16.19335938 C-17.03699608 13.12885883 -17.02051173 10.06445279 -17 7 C-16.67 7 -16.34 7 -16 7 C-16 15.25 -16 23.5 -16 32 C-11.71 32 -7.42 32 -3 32 C-2.67 31.01 -2.34 30.02 -2 29 C-1.34 29 -0.68 29 0 29 C0 19.43 0 9.86 0 0 Z " fill="#BE2F3A" transform="translate(121,71)"/>
<path d="M0 0 C3.25734641 3.25734641 2.98724548 6.47910541 3.09765625 10.98828125 C3.09107434 12.42972011 3.07924498 13.87114338 3.0625 15.3125 C3.05798828 16.05306641 3.05347656 16.79363281 3.04882812 17.55664062 C3.03712175 19.37112899 3.01918898 21.18557534 3 23 C2.67 23 2.34 23 2 23 C-0.29612756 7.25512528 -0.29612756 7.25512528 0 0 Z " fill="#CD3842" transform="translate(119,48)"/>
<path d="M0 0 C0.33 0.66 0.66 1.32 1 2 C0.34 2 -0.32 2 -1 2 C-1 2.66 -1 3.32 -1 4 C-2.98 4 -4.96 4 -7 4 C-7.33 4.66 -7.66 5.32 -8 6 C-11.10551666 6 -12.35261084 5.4606285 -15 4 C-14.67 3.34 -14.34 2.68 -14 2 C-13.11248047 2.03480469 -13.11248047 2.03480469 -12.20703125 2.0703125 C-7.66198041 2.17411464 -4.14059941 2.13708357 0 0 Z " fill="#FCDFDF" transform="translate(87,103)"/>
<path d="M0 0 C2.31 0 4.62 0 7 0 C7.66 1.32 8.32 2.64 9 4 C8.01 5.485 8.01 5.485 7 7 C7 6.01 7 5.02 7 4 C6.34 4 5.68 4 5 4 C5 3.34 5 2.68 5 2 C3.02 2 1.04 2 -1 2 C-0.67 1.34 -0.34 0.68 0 0 Z " fill="#CD2D3B" transform="translate(78,39)"/>
<path d="M0 0 C0.33 2.97 0.66 5.94 1 9 C0.67 9 0.34 9 0 9 C-0.66 6.69 -1.32 4.38 -2 2 C-5.96 2 -9.92 2 -14 2 C-11.64651729 -0.35348271 -10.78533309 -0.36468749 -7.5625 -0.6875 C-6.78003906 -0.77386719 -5.99757813 -0.86023437 -5.19140625 -0.94921875 C-3 -1 -3 -1 0 0 Z " fill="#FDDDDF" transform="translate(120,37)"/>
</svg>
